<svg width="16" height="16" viewBox="0 0 16 16" fill="none" xmlns="http://www.w3.org/2000/svg">
<path d="M15.5 8C15.5 12.1421 12.1421 15.5 8 15.5C3.85786 15.5 0.5 12.1421 0.5 8C0.5 3.85786 3.85786 0.5 8 0.5C12.1421 0.5 15.5 3.85786 15.5 8Z" stroke="#D9D9D9"/>
<path d="M6.48451 11.2276L8.10778 11.28V6.50182L6.61542 6.65891C6.60669 6.57164 6.60233 6.43636 6.60233 6.25309C6.60233 6.07854 6.60669 5.94764 6.61542 5.86036C6.99942 5.82545 7.42269 5.808 7.88524 5.808C8.09469 5.808 8.44378 5.81673 8.93251 5.83418V11.2931L10.3332 11.2276L10.3201 12H6.4976L6.48451 11.2276ZM8.27797 4.224C8.05978 4.224 7.88524 4.16727 7.75433 4.05382C7.63215 3.94036 7.57106 3.792 7.57106 3.60873C7.57106 3.42545 7.63215 3.27709 7.75433 3.16364C7.88524 3.05018 8.05978 2.99345 8.27797 2.99345C8.48742 2.99345 8.65324 3.05018 8.77542 3.16364C8.8976 3.27709 8.95869 3.42545 8.95869 3.60873C8.95869 3.792 8.8976 3.94036 8.77542 4.05382C8.65324 4.16727 8.48742 4.224 8.27797 4.224Z" fill="white"/>
</svg>
