<svg  viewBox="0 0 478 94" fill="none" xmlns="http://www.w3.org/2000/svg">
<g clip-path="url(#clip0_125_14447)">
<g opacity="0.7" filter="url(#filter0_f_125_14447)">
<path d="M-44.9943 97L-75 54.7136C-75 54.7136 -14.0674 59.552 54.8119 54.7136C155.549 47.6375 256.896 70.4297 357.874 67.0705C431.917 64.6074 483.231 56.3495 545.831 48L547 97L-44.9943 97Z" fill="url(#paint0_linear_125_14447)"/>
</g>
<path d="M-45.2824 94L-60 63.8354C-60 63.8354 -14.3602 56.2578 54.5086 51.3814C155.23 44.2497 256.562 67.2209 357.525 63.8354C431.556 61.3529 504.409 59.7965 567 51.3814L546.622 94L-45.2824 94Z" fill="#170429"/>
</g>
<defs>
<filter id="filter0_f_125_14447" x="-105" y="18" width="682" height="109" filterUnits="userSpaceOnUse" color-interpolation-filters="sRGB">
<feFlood flood-opacity="0" result="BackgroundImageFix"/>
<feBlend mode="normal" in="SourceGraphic" in2="BackgroundImageFix" result="shape"/>
<feGaussianBlur stdDeviation="15" result="effect1_foregroundBlur_125_14447"/>
</filter>
<linearGradient id="paint0_linear_125_14447" x1="533.737" y1="30.1613" x2="0.406898" y2="174.952" gradientUnits="userSpaceOnUse">
<stop stop-color="#F260C9" stop-opacity="0.73"/>
<stop offset="0.208333" stop-color="#B137C5" stop-opacity="0.897083"/>
<stop offset="0.447917" stop-color="#7B45F2" stop-opacity="0.928229"/>
<stop offset="0.765625" stop-color="#2C6CDB" stop-opacity="0.969531"/>
<stop offset="1" stop-color="#0084BC"/>
</linearGradient>
<clipPath id="clip0_125_14447">
<rect width="482" height="94" fill="white"/>
</clipPath>
</defs>
</svg>
