<svg width="34" height="24" viewBox="0 0 34 24" fill="none" xmlns="http://www.w3.org/2000/svg">
<path d="M28.8246 2.01599C26.6081 1.072 24.2542 0.383998 21.7971 0C21.4878 0.496003 21.1442 1.16799 20.9036 1.696C18.2902 1.34399 15.6957 1.34399 13.1184 1.696C12.8779 1.16799 12.517 0.496003 12.2249 0C9.75074 0.383998 7.39679 1.072 5.19577 2.01599C0.745628 8.12797 -0.45712 14.0959 0.144252 19.9839C3.09956 21.9839 5.95181 23.2 8.75421 24C9.44149 23.136 10.0601 22.2079 10.5927 21.232C9.57895 20.88 8.61676 20.4479 7.68892 19.9359C7.92947 19.776 8.17003 19.6 8.3934 19.424C13.9947 21.808 20.0618 21.808 25.5943 19.424C25.8349 19.6 26.0582 19.776 26.2988 19.9359C25.3709 20.4479 24.4088 20.88 23.395 21.232C23.9277 22.2079 24.5463 23.136 25.2335 24C28.0342 23.2 30.9036 21.9839 33.8434 19.9839C34.5822 13.168 32.6733 7.24803 28.8246 2.01599ZM11.3659 16.3519C9.68202 16.3519 8.30745 14.928 8.30745 13.184C8.30745 11.44 9.64765 10.016 11.3659 10.016C13.0669 10.016 14.4586 11.44 14.4242 13.184C14.4242 14.928 13.0669 16.3519 11.3659 16.3519ZM22.6563 16.3519C20.9723 16.3519 19.596 14.928 19.596 13.184C19.596 11.44 20.938 10.016 22.6563 10.016C24.3573 10.016 25.749 11.44 25.7146 13.184C25.7146 14.928 24.3744 16.3519 22.6563 16.3519Z" fill="white"/>
</svg>
