<svg width="30" height="24" viewBox="0 0 30 24" fill="none" xmlns="http://www.w3.org/2000/svg">
<path d="M29.5 2.84166C28.4335 3.32286 27.2879 3.64799 26.0835 3.79495C27.3122 3.04584 28.2547 1.85716 28.6992 0.44218C27.5497 1.13666 26.2764 1.64127 24.9213 1.91178C23.8356 0.736101 22.2902 0 20.5788 0C17.2938 0 14.6296 2.71291 14.6296 6.06047C14.6296 6.53387 14.6833 6.99426 14.7829 7.43904C9.8363 7.18543 5.45424 4.77295 2.51925 1.10805C2.00837 2.00542 1.71461 3.04584 1.71461 4.1539C1.71461 6.25555 2.76574 8.11141 4.36096 9.19736C3.38518 9.16484 2.46816 8.89303 1.66608 8.43915V8.51718C1.66608 11.4525 3.71598 13.9014 6.43896 14.458C5.9383 14.5959 5.41337 14.6687 4.87184 14.6687C4.48868 14.6687 4.11446 14.6323 3.75174 14.562C4.50912 16.968 6.70589 18.7211 9.31009 18.768C7.27297 20.3936 4.70708 21.3625 1.92024 21.3625C1.44002 21.3625 0.966176 21.3339 0.5 21.278C3.13358 22.9986 6.26015 24 9.61917 24C20.5647 24 26.5484 14.7688 26.5484 6.76276C26.5484 6.50266 26.542 6.23995 26.5305 5.97984C27.6928 5.12409 28.7018 4.05896 29.4974 2.84556L29.5 2.84166Z" fill="white"/>
</svg>
