<svg  viewBox="0 0 360 89" fill="none" xmlns="http://www.w3.org/2000/svg">
<g clip-path="url(#clip0_125_10461)">
<g opacity="0.7" filter="url(#filter0_f_125_10461)">
<path d="M-4.83075 98.5007L-31.3308 56.6452C-31.3308 56.6452 22.4829 61.4343 83.3149 56.6452C172.283 49.6412 261.789 72.2011 350.97 68.8762C416.362 66.4381 461.681 58.2644 516.968 50L518 98.5007L-4.83075 98.5007Z" fill="url(#paint0_linear_125_10461)"/>
</g>
<path d="M-4.83173 95.5007L-17.8318 65.8762C-17.8318 65.8762 22.482 58.4343 83.314 53.6452C172.282 46.6412 261.788 69.2011 350.969 65.8762C416.361 63.4381 461.68 55.2644 516.967 47L517.999 95.5007L-4.83173 95.5007Z" fill="#170429"/>
</g>
<defs>
<filter id="filter0_f_125_10461" x="-61.3306" y="20" width="609.331" height="108.501" filterUnits="userSpaceOnUse" color-interpolation-filters="sRGB">
<feFlood flood-opacity="0" result="BackgroundImageFix"/>
<feBlend mode="normal" in="SourceGraphic" in2="BackgroundImageFix" result="shape"/>
<feGaussianBlur stdDeviation="15" result="effect1_foregroundBlur_125_10461"/>
</filter>
<linearGradient id="paint0_linear_125_10461" x1="506.286" y1="32.3431" x2="28.5809" y2="148.06" gradientUnits="userSpaceOnUse">
<stop stop-color="#F260C9" stop-opacity="0.73"/>
<stop offset="0.208333" stop-color="#B137C5" stop-opacity="0.897083"/>
<stop offset="0.447917" stop-color="#7B45F2" stop-opacity="0.928229"/>
<stop offset="0.765625" stop-color="#2C6CDB" stop-opacity="0.969531"/>
<stop offset="1" stop-color="#0084BC"/>
</linearGradient>
<clipPath id="clip0_125_10461">
<rect width="360" height="96" fill="white"/>
</clipPath>
</defs>
</svg>
