<svg width="85" height="38" viewBox="0 0 85 38" fill="none" xmlns="http://www.w3.org/2000/svg">
<path d="M7.584 11.708L4.896 6.428L5.136 15.5H1.344V0.019999H4.8L8.28 6.812L11.76 0.019999H15.216V15.5H11.448L11.664 6.476L9 11.708H7.584ZM17.7223 12.02L20.8663 12.164V3.356L17.7223 3.5L17.8423 0.019999H27.8743L27.9943 3.5L24.8503 3.356V12.164L27.9943 12.02L27.8743 15.5H17.8423L17.7223 12.02ZM29.5877 15.5C29.8917 13.1 30.3957 10.532 31.0997 7.796C31.8037 5.06 32.6597 2.468 33.6677 0.019999H39.4517C40.4597 2.484 41.3157 5.092 42.0197 7.844C42.7397 10.58 43.2437 13.132 43.5317 15.5H39.4757C39.3477 14.556 39.2037 13.66 39.0437 12.812H34.0757L33.6437 15.5H29.5877ZM38.4197 9.5C37.9397 7.228 37.4197 5.252 36.8597 3.572H36.2597C35.6357 5.492 35.1237 7.468 34.7237 9.5H38.4197ZM47.8988 3.476H43.5788L43.5068 0.019999H56.1788L56.2508 3.476H51.8828V15.5H47.8988V3.476ZM66.8273 9.572H61.9793V15.5H57.9953V0.019999H61.9793V6.044H66.8273V0.019999H70.8113V15.5H66.8273V9.572ZM74.1778 5.372L74.5378 3.644L73.0738 3.812V0.019999H84.4018L84.6418 3.572L78.1618 3.356V6.044L83.4898 5.804V9.308L78.1618 9.14V12.164L84.8818 11.948L84.6418 15.5H74.1778V5.372Z" fill="white"/>
<path d="M7.056 37.884C4.72 37.884 2.656 37.58 0.864 36.972L1.488 33.636C3.36 34.068 5.208 34.284 7.032 34.284C8.184 34.284 8.76 33.916 8.76 33.18C8.76 32.812 8.592 32.508 8.256 32.268C7.92 32.012 7.288 31.756 6.36 31.5C4.536 31.02 3.184 30.388 2.304 29.604C1.44 28.82 1.008 27.772 1.008 26.46C1.008 24.876 1.504 23.676 2.496 22.86C3.504 22.044 4.984 21.636 6.936 21.636C8.808 21.636 10.488 21.852 11.976 22.284C11.8 23.708 11.632 24.852 11.472 25.716C10.048 25.396 8.512 25.236 6.864 25.236C5.6 25.236 4.968 25.596 4.968 26.316C4.968 26.668 5.136 26.964 5.472 27.204C5.824 27.444 6.432 27.684 7.296 27.924C9.216 28.484 10.6 29.156 11.448 29.94C12.296 30.724 12.72 31.788 12.72 33.132C12.72 34.668 12.24 35.844 11.28 36.66C10.32 37.476 8.912 37.884 7.056 37.884ZM15.2537 27.372L15.6137 25.62L14.1497 25.812L14.1257 23.94L14.1497 22.02H18.6857H19.2377H21.1577C22.9817 22.02 24.4057 22.5 25.4297 23.46C26.4537 24.42 26.9657 25.756 26.9657 27.468C26.9657 29.068 26.4697 30.356 25.4777 31.332C24.5017 32.292 23.1017 32.844 21.2777 32.988L19.2377 33.156V37.5H15.2537V27.372ZM21.0377 29.628C21.6617 29.58 22.1417 29.364 22.4777 28.98C22.8297 28.596 23.0057 28.092 23.0057 27.468C23.0057 26.844 22.8297 26.356 22.4777 26.004C22.1257 25.652 21.6457 25.476 21.0377 25.476H19.2377V29.772L21.0377 29.628ZM28.7379 34.02L31.8819 34.164V25.356L28.7379 25.5L28.8579 22.02H38.8899L39.0099 25.5L35.8659 25.356V34.164L39.0099 34.02L38.8899 37.5H28.8579L28.7379 34.02ZM44.8753 25.476H40.5553L40.4833 22.02H53.1553L53.2273 25.476H48.8593V37.5H44.8753V25.476ZM52.2598 34.356L59.4358 25.332L52.5958 25.596V22.02H64.1158V25.164L57.0358 34.236L64.3318 33.924V37.5H52.2598V34.356Z" fill="#FFC700"/>
</svg>
