<svg version="1.2" xmlns="http://www.w3.org/2000/svg" viewBox="0 0 1191 1429" width="845" height="1014"><defs><linearGradient id="P" gradientUnits="userSpaceOnUse"/><linearGradient id="g1" x2="1" href="#P" gradientTransform="matrix(1146,1.86,-1.18,727.178,39.47,1023.69)"><stop stop-color="#8840f6"/><stop offset="1" stop-color="#ff5be5"/></linearGradient></defs><style>.a{fill:none;stroke:#ffc700;stroke-width:8}.b{fill:#ffc700}.c{fill:none;stroke:#170429;stroke-width:5}.d{display:none;fill:none;stroke:#170429;stroke-width:5}.e{display:none;fill:url(#g1)}.f{display:none;fill:#fff}.g{display:none;fill:none;stroke:#f058e7;stroke-width:3}.h{display:none;fill:#ed57e7}</style><path fill-rule="evenodd" class="a" d="m42 83v84.5c0 6 1.2 12 3.5 17.6 2.3 5.6 5.7 10.7 10 14.9 4.2 4.3 9.3 7.7 14.9 10 5.6 2.3 11.6 3.5 17.6 3.5h1053c6 0 12 1.2 17.6 3.5 5.6 2.3 10.7 5.7 14.9 10 4.3 4.2 7.7 9.3 10 14.9 2.3 5.6 3.5 11.6 3.5 17.6v143c0 6-1.2 12-3.5 17.6-2.3 5.6-5.7 10.7-10 14.9-4.2 4.3-9.3 7.7-14.9 10-5.6 2.3-11.6 3.5-17.6 3.5h-1053c-6 0-12 1.2-17.6 3.5-5.6 2.3-10.7 5.7-14.9 10-4.3 4.2-7.7 9.3-10 14.9-2.3 5.6-3.5 11.6-3.5 17.6v142.5c0 6 1.2 12 3.5 17.6 2.3 5.6 5.7 10.7 10 14.9 4.2 4.3 9.3 7.7 14.9 10 5.6 2.3 11.6 3.5 17.6 3.5h534.5"/><path class="a" d="m42.5 81c-21.3 0-38.5-17.2-38.5-38.5 0-21.3 17.2-38.5 38.5-38.5 21.3 0 38.5 17.2 38.5 38.5 0 21.3-17.2 38.5-38.5 38.5z"/><path class="b" d="m42.5 70c-15.2 0-27.5-12.3-27.5-27.5 0-15.2 12.3-27.5 27.5-27.5 15.2 0 27.5 12.3 27.5 27.5 0 15.2-12.3 27.5-27.5 27.5z"/><path fill-rule="evenodd" class="c" d="m28 45.4l9.5 7.6 20.5-20"/><path class="b" d="m288 471c-13.3 0-24-10.7-24-24 0-13.3 10.7-24 24-24 13.3 0 24 10.7 24 24 0 13.3-10.7 24-24 24z"/><path class="b" d="m288 706.5c-13.3 0-24-10.7-24-24 0-13.3 10.7-24 24-24 13.3 0 24 10.7 24 24 0 13.3-10.7 24-24 24z"/><path fill-rule="evenodd" class="d" d="m276 449.5l8.3 6.5 17.7-17"/><path fill-rule="evenodd" class="d" d="m276 684.8l8.3 6.5 17.7-17"/><path class="b" d="m647 471c-13.3 0-24-10.7-24-24 0-13.3 10.7-24 24-24 13.3 0 24 10.7 24 24 0 13.3-10.7 24-24 24z"/><path fill-rule="evenodd" class="d" d="m634 449.5l8.3 6.5 17.7-17"/><path class="b" d="m1006 471c-13.3 0-24-10.7-24-24 0-13.3 10.7-24 24-24 13.3 0 24 10.7 24 24 0 13.3-10.7 24-24 24z"/><path fill-rule="evenodd" class="d" d="m993 449.5l8.6 6.5 18.4-17"/><path class="b" d="m288 235c-13.3 0-24-10.7-24-24 0-13.3 10.7-24 24-24 13.3 0 24 10.7 24 24 0 13.3-10.7 24-24 24z"/><path fill-rule="evenodd" class="d" d="m276 213.5l8.3 6.5 17.7-17"/><path class="b" d="m647 235c-13.3 0-24-10.7-24-24 0-13.3 10.7-24 24-24 13.3 0 24 10.7 24 24 0 13.3-10.7 24-24 24z"/><path fill-rule="evenodd" class="d" d="m634 213.5l8.3 6.5 17.7-17"/><path class="b" d="m1005 235c-13.3 0-24-10.7-24-24 0-13.3 10.7-24 24-24 13.3 0 24 10.7 24 24 0 13.3-10.7 24-24 24z"/><path fill-rule="evenodd" class="d" d="m992 213.5l8.6 6.5 18.4-17"/><path fill-rule="evenodd" class="e" d="m624 683.1h0.1l-0.1 0.9q0 0.3 0 0.5c0 2.8 0.6 5.5 1.6 8 1.1 2.6 2.6 4.9 4.6 6.8 1.9 2 4.3 3.5 6.8 4.6 2.6 1.1 5.3 1.6 8 1.6 2.8 0 5.5-0.5 8.1-1.6 2.5-1.1 4.8-2.6 6.8-4.6 1.9-1.9 3.5-4.2 4.5-6.8 1.1-2.5 1.6-5.2 1.6-8q0-0.2 0-0.5h0.1-0.1v-0.8-0.1c-0.2-2.6-0.8-5.2-2-7.6-1.1-2.4-2.7-4.5-4.6-6.4-2-1.8-4.2-3.2-6.7-4.1-2.4-1-5.1-1.5-7.7-1.5-2.6 0-5.3 0.5-7.7 1.5-2.5 0.9-4.7 2.3-6.7 4.1-1.9 1.9-3.5 4-4.6 6.4-1.1 2.3-1.8 4.9-2 7.5zm29.8-21c2.8 1.1 5.4 2.8 7.6 4.8 2.2 2.1 4 4.5 5.3 7.3 1.1 2.3 1.8 4.7 2.2 7.3h311.2c0.4-2.6 1.1-5 2.2-7.3 1.3-2.8 3.1-5.2 5.3-7.3 2.2-2 4.8-3.7 7.6-4.8 2.8-1.1 5.8-1.6 8.8-1.6 3 0 6 0.5 8.8 1.6 2.8 1.1 5.4 2.8 7.6 4.8 2.2 2.1 4 4.5 5.3 7.3 1.1 2.3 1.8 4.7 2.2 7.3h111.1c6.3 0 12.5 1.2 18.4 3.6 5.8 2.4 11.1 6 15.5 10.4 4.5 4.5 8 9.8 10.4 15.6 2.5 5.8 3.7 12.1 3.7 18.4v119.5c0 6.3-1.2 12.5-3.7 18.3-2.4 5.9-5.9 11.1-10.4 15.6-4.4 4.5-9.7 8-15.5 10.4-5.9 2.4-12.1 3.7-18.4 3.7h-111.1c-0.3 2.5-1 5-2 7.4-1.3 2.8-3.1 5.3-5.3 7.4-2.2 2.1-4.8 3.8-7.7 4.9-2.8 1.2-5.8 1.8-8.9 1.8-3.1 0-6.1-0.6-8.9-1.8-2.9-1.1-5.5-2.8-7.7-4.9-2.2-2.1-4-4.6-5.3-7.4-1-2.4-1.7-4.9-2-7.4h-311.2c-0.3 2.5-1 5-2 7.4-1.3 2.8-3.1 5.3-5.3 7.4-2.2 2.1-4.8 3.8-7.7 4.9-2.8 1.2-5.8 1.8-8.9 1.8-3.1 0-6.1-0.6-8.9-1.8-2.9-1.1-5.5-2.8-7.7-4.9-2.2-2.1-4-4.6-5.3-7.4-1-2.4-1.7-4.9-2-7.4h-311.2c-0.3 2.5-1 5-2 7.4-1.3 2.8-3.1 5.3-5.3 7.4-2.2 2.1-4.8 3.8-7.7 4.9-2.8 1.2-5.8 1.8-8.9 1.8-3.1 0-6.1-0.6-8.9-1.8-2.9-1.1-5.5-2.8-7.7-4.9-2.2-2.1-4-4.6-5.3-7.4-1-2.4-1.7-4.9-2-7.4h-176.1c-5.8 0-11.5 1.1-16.8 3.3-5.4 2.2-10.2 5.5-14.3 9.6-4.1 4-7.3 8.9-9.6 14.2-2.2 5.4-3.3 11.1-3.3 16.9h-1c0-5.9 1.2-11.8 3.4-17.3 2.3-5.4 5.6-10.4 9.8-14.6 4.2-4.1 9.1-7.4 14.6-9.7 5.4-2.3 11.3-3.4 17.2-3.4v-2c-6.2 0-12.3 1.2-18 3.5-5.7 2.4-10.9 5.9-15.2 10.2-4.4 4.4-7.9 9.6-10.2 15.3-2.4 5.7-3.6 11.8-3.6 18h2v152h-2c0 6.1 1.2 12.2 3.6 17.9 2.3 5.8 5.8 10.9 10.2 15.3 4.3 4.4 9.5 7.8 15.2 10.2 5.7 2.3 11.8 3.6 18 3.6v-3c-5.8 0-11.5-1.2-16.8-3.4-5.4-2.2-10.2-5.4-14.3-9.5-4.1-4.1-7.3-9-9.6-14.3-2.2-5.3-3.3-11.1-3.3-16.8h-1c0 5.9 1.2 11.7 3.4 17.2 2.3 5.4 5.6 10.4 9.8 14.6 4.2 4.2 9.1 7.5 14.6 9.7 5.4 2.3 11.3 3.5 17.2 3.5v-1h176.3q-0.1-0.4-0.2-0.9 0-0.6-0.1-1.3 0-0.7 0-1.3c0-3.2 0.6-6.3 1.8-9.2 1.2-2.9 3-5.6 5.2-7.8 2.3-2.2 4.9-4 7.8-5.2 2.9-1.2 6-1.8 9.2-1.8 3.2 0 6.3 0.6 9.2 1.8 2.9 1.2 5.5 3 7.8 5.2 2.2 2.2 4 4.9 5.2 7.8 1.2 2.9 1.8 6 1.8 9.2q0 0.6 0 1.3-0.1 0.7-0.1 1.3-0.1 0.5-0.2 0.9h311.3c0.1-3 0.7-6 1.8-8.7 1.2-2.9 3-5.6 5.2-7.8 2.3-2.2 4.9-4 7.8-5.2 2.9-1.2 6-1.8 9.2-1.8 3.2 0 6.3 0.6 9.2 1.8 2.9 1.2 5.5 3 7.8 5.2 2.2 2.2 4 4.9 5.2 7.8 1.1 2.7 1.7 5.7 1.8 8.7h311c0.1-3 0.7-6 1.8-8.7 1.2-2.9 3-5.6 5.2-7.8 2.3-2.2 4.9-4 7.8-5.2 2.9-1.2 6-1.8 9.2-1.8 3.2 0 6.3 0.6 9.2 1.8 2.9 1.2 5.5 3 7.8 5.2 2.2 2.2 4 4.9 5.2 7.8 1.1 2.7 1.7 5.7 1.8 8.7h111c6.3 0 12.5 1.2 18.4 3.6 5.8 2.4 11.1 6 15.5 10.4 4.5 4.5 8 9.8 10.4 15.6 2.5 5.8 3.7 12.1 3.7 18.4v157c0 6.3-1.2 12.5-3.7 18.3-2.4 5.9-5.9 11.1-10.4 15.6-4.4 4.5-9.7 8-15.5 10.4-5.9 2.4-12.1 3.7-18.4 3.7h-131.5v-1.5-1-1.5h131.5v1c5.9 0 11.8-1.2 17.2-3.5 5.5-2.2 10.4-5.5 14.6-9.7 4.2-4.2 7.5-9.2 9.8-14.6 2.2-5.5 3.4-11.3 3.4-17.2h-1v-157h1c0-5.9-1.2-11.8-3.4-17.3-2.3-5.4-5.6-10.4-9.8-14.6-4.2-4.1-9.1-7.4-14.6-9.7-5.4-2.3-11.3-3.4-17.2-3.4v1h-111.3c-0.3 2.4-1.1 4.9-2.2 7.1-1.3 2.7-3.1 5.1-5.3 7.1-2.2 2-4.7 3.6-7.5 4.6-2.8 1.1-5.7 1.7-8.7 1.7-3 0-5.9-0.6-8.7-1.7-2.8-1-5.3-2.6-7.5-4.6-2.2-2-4-4.4-5.3-7.1-1.1-2.2-1.9-4.7-2.3-7.1h-311.5c-0.3 2.4-1.1 4.9-2.2 7.1-1.3 2.7-3.1 5.1-5.3 7.1-2.2 2-4.7 3.6-7.5 4.6-2.8 1.1-5.7 1.7-8.7 1.7-3 0-5.9-0.6-8.7-1.7-2.8-1-5.3-2.6-7.5-4.6-2.2-2-4-4.4-5.3-7.1-1.1-2.2-1.9-4.7-2.3-7.1h-312.4c-0.7 2.1-1.7 4.1-2.9 5.9-1.5 2.2-3.3 4.1-5.4 5.7-2 1.5-4.4 2.8-6.8 3.6-2.5 0.8-5.1 1.3-7.7 1.3-2.6 0-5.2-0.5-7.7-1.3-2.4-0.8-4.8-2.1-6.8-3.6-2.1-1.6-3.9-3.5-5.4-5.7-1.2-1.8-2.2-3.8-2.9-5.9h-177.2c-6.3 0-12.5-1.3-18.4-3.7-5.8-2.4-11.1-5.9-15.5-10.4-4.5-4.5-8-9.7-10.4-15.6-2.5-5.8-3.7-12-3.7-18.3v-152c0-6.3 1.2-12.6 3.7-18.4 2.4-5.8 5.9-11.1 10.4-15.6 4.4-4.4 9.7-8 15.5-10.4 5.9-2.4 12.1-3.6 18.4-3.6h176c0.2-2.7 0.8-5.3 1.8-7.7 1.2-2.9 3-5.6 5.2-7.8 2.3-2.2 4.9-4 7.8-5.2 2.9-1.2 6-1.8 9.2-1.8 3.2 0 6.3 0.6 9.2 1.8 2.9 1.2 5.5 3 7.8 5.2 2.2 2.2 4 4.9 5.2 7.8 1 2.4 1.6 5 1.8 7.7h311c0.2-2.7 0.8-5.3 1.8-7.7 1.2-2.9 3-5.6 5.2-7.8 2.3-2.2 4.9-4 7.8-5.2 2.9-1.2 6-1.8 9.2-1.8 3.2 0 6.3 0.6 9.2 1.8 2.9 1.2 5.5 3 7.8 5.2 2.2 2.2 4 4.9 5.2 7.8 1 2.4 1.6 5 1.8 7.7h311c0.2-2.7 0.8-5.3 1.8-7.7 1.2-2.9 3-5.6 5.2-7.8 2.3-2.2 4.9-4 7.8-5.2 2.9-1.2 6-1.8 9.2-1.8 3.2 0 6.3 0.6 9.2 1.8 2.9 1.2 5.5 3 7.8 5.2 2.2 2.2 4 4.9 5.2 7.8 1 2.4 1.6 5 1.8 7.7h111v1q0 0 0 0v2c6.2 0 12.3-1.3 18-3.6 5.7-2.4 10.9-5.8 15.3-10.2 4.3-4.4 7.8-9.5 10.2-15.3 2.3-5.7 3.5-11.8 3.5-17.9h-2v-119.5h2c0-6.2-1.2-12.3-3.5-18-2.4-5.7-5.9-10.9-10.2-15.3-4.4-4.3-9.6-7.8-15.3-10.2-5.7-2.3-11.8-3.5-18-3.5v2q0 0 0 0v1h-111c-0.1 2.8-0.7 5.5-1.8 8.1-1.2 3-3 5.6-5.2 7.8-2.2 2.3-4.9 4-7.8 5.2-2.9 1.2-6 1.9-9.2 1.9-3.1 0-6.2-0.7-9.1-1.9-2.9-1.2-5.6-2.9-7.8-5.2-2.2-2.2-4-4.8-5.2-7.8-1.1-2.6-1.7-5.3-1.8-8.1h-311.1c-0.1 2.8-0.7 5.5-1.8 8.1-1.2 3-3 5.6-5.2 7.8-2.2 2.3-4.9 4-7.8 5.2-2.9 1.2-6 1.9-9.2 1.9-3.1 0-6.2-0.7-9.1-1.9-3-1.2-5.6-2.9-7.8-5.2-2.3-2.2-4-4.8-5.2-7.8-1.2-2.9-1.9-6-1.9-9.1q0-0.3 0-0.6l1.5 0.1v-1l-1.5-0.1c0.2-3.1 1-6 2.3-8.7 1.3-2.8 3.1-5.2 5.3-7.3 2.2-2 4.8-3.7 7.6-4.8 2.8-1.1 5.8-1.6 8.8-1.6 3 0 6 0.5 8.8 1.6zm329.2 21h0.1l-0.1 0.9q0 0.2 0 0.5c0 2.7 0.6 5.5 1.6 8 1.1 2.5 2.7 4.9 4.6 6.8 2 2 4.3 3.5 6.8 4.6 2.6 1 5.3 1.6 8 1.6 2.8 0 5.5-0.6 8.1-1.6 2.5-1.1 4.8-2.6 6.8-4.6 1.9-1.9 3.5-4.3 4.6-6.8 1-2.5 1.5-5.3 1.5-8q0-0.3 0-0.5h0.1-0.1v-0.8-0.1c-0.2-2.7-0.8-5.3-2-7.6-1.1-2.4-2.7-4.6-4.6-6.4-2-1.8-4.2-3.2-6.7-4.2-2.4-0.9-5.1-1.4-7.7-1.4-2.6 0-5.3 0.5-7.7 1.4-2.5 1-4.7 2.4-6.7 4.2-1.9 1.8-3.5 4-4.6 6.4-1.1 2.3-1.8 4.8-2 7.4zm201 165.9c0 5.9-1.2 11.8-3.4 17.2-2.3 5.5-5.6 10.5-9.8 14.6-4.2 4.2-9.1 7.5-14.6 9.8-5.4 2.3-11.3 3.4-17.2 3.4v-1c5.8 0 11.5-1.1 16.9-3.3 5.3-2.2 10.2-5.5 14.3-9.6 4-4 7.3-8.9 9.5-14.2 2.2-5.4 3.3-11.1 3.3-16.9zm0-119.5h-0.9c0-5.8-1.1-11.5-3.3-16.8-2.3-5.3-5.5-10.2-9.6-14.3-4.1-4.1-8.9-7.3-14.3-9.5-5.3-2.2-11-3.4-16.8-3.4v-1c5.9 0 11.7 1.2 17.2 3.5 5.4 2.2 10.4 5.5 14.6 9.7 4.1 4.2 7.5 9.1 9.7 14.6 2.3 5.5 3.4 11.3 3.4 17.2zm-159 166v-1.4c0-2.6-0.5-5.2-1.5-7.6-1.1-2.6-2.7-4.9-4.6-6.8-2-2-4.3-3.5-6.8-4.6-2.6-1-5.3-1.6-8.1-1.6-2.7 0-5.4 0.6-8 1.6-2.5 1.1-4.8 2.6-6.8 4.6-1.9 1.9-3.5 4.2-4.6 6.8-1 2.5-1.5 5.3-1.6 8v1c0.2 2.6 0.8 5.3 1.9 7.7 1.1 2.4 2.7 4.7 4.6 6.5 2 1.9 4.2 3.3 6.7 4.3 2.5 1 5.2 1.5 7.8 1.5 2.7 0 5.4-0.5 7.9-1.5 2.5-1 4.7-2.4 6.7-4.3 1.9-1.8 3.5-4.1 4.6-6.5 1.1-2.4 1.7-5.1 1.8-7.7zm-359 0l0.1-1.4c0-2.6-0.6-5.2-1.6-7.6-1-2.6-2.6-4.9-4.5-6.8-2-2-4.3-3.5-6.9-4.6-2.5-1-5.2-1.6-8-1.6-2.7 0-5.5 0.6-8 1.6-2.6 1.1-4.9 2.6-6.8 4.6-2 1.9-3.5 4.2-4.6 6.8-1 2.5-1.6 5.3-1.6 8v1c0.1 2.6 0.8 5.3 1.9 7.7 1.1 2.5 2.6 4.7 4.6 6.5 1.9 1.9 4.2 3.3 6.7 4.3 2.5 1 5.1 1.5 7.8 1.5 2.7 0 5.3-0.5 7.8-1.5 2.5-1 4.8-2.4 6.7-4.3 2-1.8 3.5-4 4.7-6.5 1.1-2.4 1.7-5.1 1.8-7.7zm-359 0l0.1-1.4c-0.1-2.6-0.6-5.2-1.6-7.6-1.1-2.6-2.6-4.9-4.6-6.8-1.9-2-4.2-3.5-6.8-4.6-2.5-1-5.3-1.6-8-1.6-2.8 0-5.5 0.6-8.1 1.6-2.5 1.1-4.8 2.6-6.8 4.6-1.9 1.9-3.5 4.2-4.5 6.8-1.1 2.5-1.6 5.3-1.6 8v1c0.1 2.6 0.7 5.3 1.8 7.7 1.1 2.5 2.7 4.7 4.6 6.5 2 1.9 4.3 3.3 6.7 4.3 2.5 1 5.2 1.5 7.9 1.5 2.7 0 5.3-0.5 7.8-1.5 2.5-1 4.8-2.4 6.7-4.3 1.9-1.8 3.5-4 4.6-6.5 1.1-2.4 1.8-5.1 1.9-7.7zm-41.2 243.6c0.6 2.2 1.6 4.3 2.8 6.2 1.3 1.9 2.9 3.6 4.7 4.9 1.8 1.4 3.9 2.5 6 3.2 2.2 0.8 4.4 1.1 6.7 1.1 2.3 0 4.6-0.3 6.7-1.1 2.2-0.7 4.2-1.8 6-3.2 1.9-1.3 3.4-3 4.7-4.9 1.3-1.9 2.2-3.9 2.9-6.1l0.2-1q0.1-0.6 0.2-1.1 0.1-0.6 0.2-1.2 0.1-0.6 0.1-1.2 0-0.6 0-1.2c0-2.7-0.5-5.5-1.6-8-1-2.5-2.6-4.9-4.5-6.8-2-2-4.3-3.5-6.8-4.6-2.6-1-5.3-1.6-8.1-1.6-2.7 0-5.5 0.6-8 1.6-2.6 1.1-4.9 2.6-6.8 4.6-2 1.9-3.5 4.3-4.6 6.8-1 2.5-1.6 5.3-1.6 8q0 0.6 0.1 1.2 0 0.6 0.1 1.2 0 0.6 0.1 1.2 0.1 0.5 0.2 1.1zm358.4 0.3h-0.1c0.3 2.6 1 5.1 2.1 7.4 1.2 2.4 2.8 4.5 4.7 6.2 1.9 1.8 4.1 3.1 6.6 4.1 2.4 0.9 5 1.4 7.6 1.4 2.6 0 5.1-0.5 7.6-1.4 2.4-1 4.6-2.3 6.5-4.1 2-1.7 3.5-3.8 4.7-6.2 1.1-2.3 1.9-4.8 2.1-7.4h-0.1l0.2-1.4q0-0.2 0-0.5c0-2.7-0.6-5.5-1.6-8-1.1-2.6-2.6-4.9-4.6-6.8-1.9-2-4.2-3.5-6.8-4.6-2.5-1-5.3-1.6-8-1.6-2.8 0-5.5 0.6-8.1 1.6-2.5 1.1-4.8 2.6-6.8 4.6-1.9 1.9-3.5 4.2-4.5 6.8-1.1 2.5-1.6 5.3-1.6 8q0 0.3 0 0.5zm359 0c0.2 2.6 0.9 5.1 2.1 7.5 1.1 2.3 2.7 4.4 4.6 6.1 1.9 1.8 4.2 3.2 6.6 4.1 2.4 1 5 1.4 7.6 1.4 2.6 0 5.2-0.4 7.6-1.4 2.4-0.9 4.6-2.3 6.6-4.1 1.9-1.7 3.4-3.8 4.6-6.1 1.2-2.4 1.9-4.9 2.1-7.5l0.1-1.4q0-0.2 0-0.5c0-2.7-0.6-5.5-1.6-8-1.1-2.5-2.6-4.9-4.6-6.8-1.9-2-4.2-3.5-6.8-4.6-2.5-1-5.3-1.6-8-1.6-2.8 0-5.5 0.6-8.1 1.6-2.5 1.1-4.8 2.6-6.8 4.6-1.9 1.9-3.5 4.3-4.5 6.8-1.1 2.5-1.6 5.3-1.6 8q0 0.3 0 0.5zm-1.5-455.3h-0.1 0.1zm-359 0h-0.1 0.1zm516.4 705c6.2 0 12.3-1.2 18-3.6 5.7-2.4 10.9-5.8 15.2-10.2 4.4-4.4 7.8-9.5 10.2-15.2 2.4-5.7 3.6-11.9 3.6-18h-3c0 5.7-1.1 11.5-3.4 16.8-2.2 5.3-5.4 10.2-9.5 14.3-4.1 4.1-8.9 7.3-14.3 9.5-5.3 2.2-11 3.4-16.8 3.4zm47-204c0-6.2-1.2-12.3-3.6-18-2.4-5.7-5.8-10.9-10.2-15.3-4.3-4.3-9.5-7.8-15.2-10.2-5.7-2.3-11.8-3.5-18-3.5v3c5.8 0 11.5 1.1 16.8 3.3 5.4 2.2 10.2 5.5 14.3 9.6 4.1 4 7.3 8.9 9.5 14.2 2.3 5.4 3.4 11.1 3.4 16.9zm-563.5-500.5v-3"/><path fill-rule="evenodd" class="f" d="m640.2 1396.5v-15.4h2.3l8.5 10.4v-10.4h2.8v15.4h-2.3l-8.5-10.4v10.4zm10.8-5v1.5h1.2zm-8-5.4v-1.5h-1.2zm20.1 10.6q-0.5 0-0.9-0.1-0.4 0-0.8-0.1-0.4-0.1-0.8-0.2-0.4-0.2-0.8-0.4-0.3-0.2-0.6-0.4-0.3-0.2-0.6-0.5-0.3-0.3-0.5-0.6-0.3-0.3-0.5-0.6-0.2-0.4-0.3-0.8-0.2-0.3-0.3-0.7-0.1-0.4-0.2-0.8 0-0.4 0-0.8 0-0.4 0-0.9 0.1-0.4 0.2-0.8 0.1-0.3 0.3-0.7 0.1-0.4 0.3-0.8 0.2-0.3 0.5-0.6 0.2-0.3 0.5-0.6 0.3-0.2 0.6-0.5 0.3-0.2 0.6-0.4 0.8-0.4 1.6-0.6 0.8-0.1 1.7-0.2 0.8 0.1 1.6 0.2 0.8 0.2 1.6 0.6 0.3 0.2 0.6 0.4 0.4 0.3 0.6 0.5 0.3 0.3 0.6 0.6 0.2 0.3 0.4 0.6 0.4 0.7 0.6 1.5 0.2 0.8 0.2 1.6 0 0.9-0.2 1.7-0.2 0.7-0.6 1.5-0.2 0.3-0.4 0.6-0.3 0.3-0.6 0.6-0.2 0.3-0.6 0.5-0.3 0.2-0.6 0.4-0.4 0.2-0.8 0.4-0.4 0.1-0.8 0.2-0.4 0.1-0.8 0.1-0.4 0.1-0.8 0.1zm0-2.4q0.2 0 0.4 0 0.3 0 0.5-0.1 0.2 0 0.4-0.1 0.2-0.1 0.5-0.2 0.1-0.1 0.3-0.3 0.2-0.1 0.4-0.3 0.1-0.1 0.3-0.3 0.1-0.2 0.2-0.4 0.1-0.2 0.2-0.5 0.1-0.2 0.1-0.4 0.1-0.3 0.1-0.5 0.1-0.3 0.1-0.5 0-0.3-0.1-0.6 0-0.2 0-0.5-0.1-0.2-0.2-0.5-0.1-0.2-0.2-0.4-0.1-0.2-0.2-0.4-0.2-0.2-0.3-0.4-0.2-0.1-0.4-0.3-0.2-0.1-0.3-0.2-0.3-0.1-0.5-0.2-0.2-0.1-0.4-0.1-0.3-0.1-0.5-0.1-0.2 0-0.5 0-0.2 0-0.4 0.1-0.3 0-0.5 0-0.2 0.1-0.4 0.2-0.3 0.1-0.5 0.2-0.2 0.1-0.3 0.2-0.2 0.2-0.4 0.3-0.1 0.2-0.3 0.4-0.1 0.1-0.2 0.3-0.1 0.3-0.2 0.5-0.1 0.3-0.2 0.5 0 0.3 0 0.5-0.1 0.3-0.1 0.5 0 0.3 0.1 0.6 0 0.2 0 0.5 0.1 0.2 0.2 0.4 0.1 0.3 0.2 0.5 0.1 0.2 0.2 0.4 0.2 0.2 0.3 0.3 0.2 0.2 0.4 0.3 0.1 0.2 0.3 0.3 0.2 0.1 0.5 0.2 0.2 0 0.4 0.1 0.2 0 0.5 0 0.2 0 0.5 0zm15.5-9.7q0.3 0 0.7 0.1 0.3 0 0.6 0.1 0.3 0 0.6 0.2 0.3 0.1 0.6 0.2 0.3 0.1 0.6 0.3 0.2 0.2 0.4 0.4 0.3 0.2 0.4 0.5 0.2 0.2 0.4 0.5 0.2 0.3 0.3 0.7 0.1 0.3 0.2 0.7 0.1 0.4 0.1 0.7 0 0.4 0 0.8v6.7h-2.7v-6.4q0-0.3 0-0.6-0.1-0.3-0.2-0.6-0.1-0.3-0.2-0.6-0.2-0.2-0.4-0.5-0.2-0.2-0.4-0.3-0.2-0.2-0.5-0.3-0.3-0.1-0.5-0.1-0.3-0.1-0.6-0.1-0.2 0-0.4 0.1-0.2 0-0.5 0-0.2 0.1-0.4 0.2-0.2 0-0.4 0.1-0.2 0.1-0.4 0.3-0.1 0.1-0.3 0.2-0.1 0.2-0.2 0.4-0.2 0.1-0.3 0.3-0.1 0.3-0.2 0.5 0 0.3-0.1 0.5 0 0.3-0.1 0.5 0 0.3 0 0.5v6h-2.7v-11.8h2.6v1.5q0.1-0.2 0.3-0.3 0.2-0.2 0.5-0.4 0.2-0.2 0.5-0.3 0.3-0.2 0.7-0.3 0.3-0.1 0.6-0.2 0.4-0.1 0.7-0.1 0.4-0.1 0.7-0.1zm-4 1.7q-0.1 0.1-0.1 0.2-0.2 0.2-0.3 0.5l0.4 1zm11.8 5.2v-2.3h6v2.3zm12.7 5.2q-0.3 0-0.7-0.1-0.4 0-0.7 0-0.4-0.1-0.7-0.1-0.4-0.1-0.7-0.2-0.3-0.1-0.6-0.2-0.3-0.1-0.5-0.2-0.3-0.1-0.6-0.3-0.2-0.1-0.5-0.3l1.1-2.1q0.2 0.1 0.4 0.3 0.3 0.1 0.5 0.2 0.2 0.1 0.5 0.2 0.2 0.1 0.5 0.1 0.2 0.1 0.5 0.2 0.3 0 0.6 0.1 0.2 0 0.5 0 0.3 0.1 0.6 0.1 0.2 0 0.5 0 0.2 0 0.4-0.1 0.3 0 0.5-0.1 0.2-0.1 0.4-0.2 0.2 0 0.3-0.2 0.1-0.1 0.2-0.2 0.1-0.1 0.1-0.3 0.1-0.1 0.1-0.3 0-0.1-0.1-0.2 0-0.1-0.1-0.2 0-0.1-0.1-0.2-0.1 0-0.1-0.1-0.2-0.1-0.3-0.1-0.1-0.1-0.2-0.1-0.2-0.1-0.3-0.1-0.1-0.1-0.2-0.1-0.7-0.1-1.5-0.2c-0.5-0.1-1-0.2-1.5-0.3q-0.2-0.1-0.4-0.1-0.2-0.1-0.4-0.2-0.1 0-0.3-0.1-0.2-0.1-0.3-0.2-0.4-0.2-0.7-0.4-0.3-0.3-0.5-0.7-0.1-0.3-0.2-0.7-0.1-0.4-0.1-0.8 0-0.3 0.1-0.5 0-0.3 0.1-0.5 0.1-0.3 0.2-0.5 0.1-0.2 0.3-0.4 0.1-0.2 0.3-0.4 0.2-0.2 0.5-0.4 0.2-0.2 0.4-0.3 0.3-0.1 0.5-0.2 0.4-0.1 0.7-0.2 0.3-0.1 0.7-0.2 0.3 0 0.7-0.1 0.3 0 0.7 0 0.3 0 0.6 0 0.3 0.1 0.6 0.1 0.3 0 0.6 0.1 0.3 0 0.6 0.1 0.2 0 0.5 0.1 0.3 0.1 0.5 0.2 0.3 0.1 0.5 0.2 0.2 0.1 0.5 0.2l-1.1 2.1q-0.2-0.1-0.4-0.2-0.2-0.1-0.4-0.2-0.2-0.1-0.4-0.1-0.2-0.1-0.5-0.2-0.2 0-0.4 0-0.2-0.1-0.4-0.1-0.2 0-0.4 0-0.2 0-0.4-0.1-0.3 0-0.5 0.1-0.3 0-0.5 0-0.2 0.1-0.5 0.1-0.2 0.1-0.4 0.2-0.1 0.1-0.3 0.2-0.1 0.1-0.1 0.2-0.1 0.1-0.2 0.3 0 0.1 0 0.3 0 0.1 0 0.2 0 0.1 0.1 0.2 0 0.1 0.1 0.2 0.1 0.1 0.2 0.2 0.1 0 0.2 0.1 0.1 0.1 0.3 0.1 0.1 0.1 0.2 0.1 0.2 0.1 0.3 0.1 0.6 0.1 1.4 0.2 0.2 0.1 0.4 0.1 0.2 0 0.4 0.1 0.2 0 0.4 0 0.2 0.1 0.4 0.1 0.1 0.1 0.3 0.1 0.2 0.1 0.4 0.2 0.2 0 0.3 0.1 0.2 0.1 0.4 0.2 0.1 0.1 0.3 0.2 0.1 0.1 0.2 0.2 0.2 0.1 0.3 0.3 0.1 0.1 0.2 0.3 0.1 0.2 0.2 0.4 0 0.1 0.1 0.4 0 0.2 0.1 0.4 0 0.2 0 0.4 0 0.2-0.1 0.5 0 0.3-0.1 0.5-0.1 0.2-0.2 0.5-0.1 0.2-0.3 0.4-0.2 0.2-0.4 0.4-0.2 0.2-0.4 0.4-0.2 0.1-0.5 0.2-0.3 0.2-0.5 0.3-0.4 0.1-0.7 0.2-0.3 0.1-0.7 0.1-0.3 0.1-0.7 0.1-0.3 0.1-0.7 0.1zm12.1 0q-0.4 0-0.8-0.1-0.4 0-0.8-0.1-0.4-0.2-0.7-0.4-0.4-0.2-0.7-0.4-0.3-0.3-0.5-0.7-0.2-0.3-0.3-0.7-0.2-0.4-0.2-0.8-0.1-0.4 0-0.8v-5.7h-2v-2.2h2v-2.7h2.7v2.7h3.1v2.2h-3.1v5.6q0 0.2 0 0.3 0 0.2 0.1 0.4 0.1 0.2 0.1 0.3 0.1 0.2 0.2 0.3 0.1 0.1 0.3 0.2 0.1 0.1 0.3 0.2 0.1 0 0.3 0 0.2 0.1 0.3 0.1 0.2 0 0.5-0.1 0.2 0 0.4-0.1 0.1 0 0.3-0.1 0.2-0.1 0.4-0.2l0.8 2q-0.2 0.1-0.3 0.2-0.2 0.1-0.3 0.1-0.2 0.1-0.3 0.2-0.2 0-0.3 0.1-0.2 0-0.4 0.1-0.2 0-0.4 0-0.1 0-0.3 0-0.2 0.1-0.4 0.1zm9.8 0q-0.4 0-0.8-0.1-0.5 0-0.9-0.1-0.4-0.1-0.8-0.3-0.4-0.1-0.7-0.3-0.4-0.2-0.7-0.4-0.3-0.3-0.6-0.5-0.3-0.3-0.5-0.6-0.2-0.3-0.4-0.7-0.2-0.3-0.4-0.7-0.2-0.4-0.3-0.8-0.1-0.3-0.1-0.8-0.1-0.4 0-0.8-0.1-0.4 0-0.8 0-0.4 0.1-0.8 0.1-0.4 0.3-0.7 0.2-0.4 0.4-0.8 0.2-0.3 0.4-0.6 0.2-0.3 0.5-0.6 0.3-0.3 0.6-0.5 0.3-0.2 0.7-0.4 0.7-0.4 1.5-0.6 0.9-0.2 1.7-0.2 0.8 0 1.7 0.2 0.8 0.2 1.5 0.6 0.4 0.2 0.7 0.4 0.3 0.2 0.6 0.5 0.3 0.3 0.5 0.6 0.3 0.3 0.5 0.6 0.3 0.7 0.6 1.5 0.2 0.8 0.2 1.6 0 0.8-0.2 1.6-0.3 0.8-0.6 1.5-0.2 0.4-0.5 0.7-0.2 0.3-0.5 0.6-0.3 0.2-0.6 0.5-0.3 0.2-0.7 0.4-0.3 0.2-0.7 0.3-0.4 0.2-0.8 0.3-0.4 0.1-0.8 0.1-0.4 0.1-0.9 0.1zm0.1-2.4q0 0 0 0 0 0-0.1 0zm0.5 0q0.2 0 0.4-0.1 0.3-0.1 0.5-0.1 0.2-0.1 0.4-0.2 0.2-0.1 0.4-0.3 0.2-0.1 0.3-0.3 0.2-0.1 0.3-0.3 0.1-0.2 0.2-0.4 0.1-0.2 0.2-0.5 0.1-0.2 0.2-0.5 0-0.2 0.1-0.5 0-0.2 0-0.5 0-0.2 0-0.5 0-0.2-0.1-0.5-0.1-0.2-0.2-0.5 0-0.2-0.2-0.5-0.1-0.2-0.2-0.3-0.1-0.2-0.3-0.4-0.1-0.2-0.3-0.3-0.2-0.1-0.4-0.2-0.2-0.1-0.4-0.2-0.2-0.1-0.5-0.1-0.2-0.1-0.4-0.1-0.2 0-0.5 0-0.2 0-0.4 0-0.3 0.1-0.5 0.1-0.2 0.1-0.4 0.2-0.3 0-0.5 0.1-0.2 0.2-0.3 0.3-0.2 0.1-0.4 0.3-0.1 0.2-0.3 0.3-0.1 0.2-0.2 0.4-0.1 0.3-0.2 0.5-0.1 0.2-0.2 0.5 0 0.3 0 0.5-0.1 0.3-0.1 0.5 0 0.3 0.1 0.5 0 0.3 0 0.5 0.1 0.3 0.2 0.5 0.1 0.3 0.2 0.5 0.1 0.2 0.2 0.4 0.2 0.1 0.3 0.3 0.2 0.2 0.4 0.3 0.1 0.1 0.3 0.3 0.2 0.1 0.5 0.1 0.2 0.1 0.4 0.2 0.2 0 0.5 0 0.2 0 0.4 0 0.2 0 0.5 0zm14.9 2.4q-0.3 0-0.7-0.1-0.3 0-0.6-0.1-0.4-0.1-0.7-0.2-0.3-0.1-0.6-0.3-0.3-0.2-0.6-0.4-0.3-0.2-0.5-0.5 0 0-0.1 0v5.7h-2.7v-16h2.6v1.5q0.1-0.1 0.2-0.2 0.2-0.3 0.5-0.5 0.2-0.2 0.5-0.4 0.3-0.1 0.7-0.3 0.3-0.1 0.6-0.2 0.4-0.1 0.7-0.1 0.4 0 0.7 0 0.4 0 0.8 0 0.4 0 0.8 0.1 0.4 0.1 0.7 0.3 0.4 0.1 0.8 0.3 0.3 0.2 0.6 0.4 0.3 0.3 0.6 0.5 0.2 0.3 0.5 0.6 0.2 0.3 0.4 0.6 0.2 0.4 0.3 0.8 0.2 0.3 0.3 0.7 0.1 0.4 0.1 0.9 0.1 0.4 0.1 0.8 0 0.4-0.1 0.8 0 0.4-0.1 0.8-0.1 0.4-0.3 0.8-0.1 0.4-0.3 0.8-0.2 0.3-0.4 0.6-0.3 0.3-0.5 0.6-0.3 0.2-0.6 0.5-0.3 0.2-0.6 0.4-0.4 0.2-0.8 0.3-0.3 0.2-0.7 0.3-0.4 0.1-0.8 0.1-0.4 0.1-0.8 0.1zm-0.3-2.4q0 0 0 0 0 0 0 0zm0.5 0q0.2 0 0.4-0.1 0.2-0.1 0.4-0.1 0.3-0.1 0.5-0.2 0.2-0.1 0.3-0.3 0.2-0.1 0.4-0.3 0.1-0.1 0.3-0.3 0.1-0.2 0.2-0.4 0.1-0.2 0.2-0.5 0.1-0.2 0.2-0.5 0-0.2 0.1-0.5 0-0.2 0-0.5 0-0.2 0-0.5-0.1-0.2-0.1-0.5-0.1-0.2-0.2-0.5-0.1-0.2-0.2-0.5-0.1-0.2-0.2-0.3-0.2-0.2-0.3-0.4-0.2-0.2-0.4-0.3-0.1-0.1-0.3-0.2-0.2-0.2-0.5-0.2-0.2-0.1-0.4-0.2-0.2 0-0.4-0.1-0.3 0-0.5 0-0.2 0-0.5 0-0.2 0.1-0.4 0.1-0.2 0.1-0.5 0.2-0.2 0-0.4 0.2-0.2 0.1-0.4 0.2-0.1 0.1-0.3 0.3-0.2 0.2-0.3 0.4-0.1 0.1-0.2 0.3-0.2 0.3-0.3 0.5 0 0.3-0.1 0.5-0.1 0.3-0.1 0.5 0 0.3 0 0.5 0 0.3 0 0.5 0 0.3 0.1 0.5 0.1 0.3 0.2 0.5 0 0.3 0.2 0.5 0.1 0.2 0.2 0.4 0.1 0.2 0.3 0.3 0.2 0.2 0.3 0.3 0.2 0.2 0.4 0.3 0.2 0.1 0.4 0.2 0.3 0.1 0.5 0.1 0.2 0.1 0.5 0.1 0.2 0 0.4 0 0.2 0 0.5 0zm19.4 2.4q-0.4 0-0.8-0.1-0.4 0-0.7-0.1-0.4-0.1-0.8-0.3-0.4-0.1-0.7-0.3-0.4-0.2-0.7-0.4-0.3-0.2-0.5-0.5-0.3-0.3-0.5-0.6-0.3-0.3-0.4-0.6-0.4-0.7-0.6-1.5-0.2-0.8-0.2-1.7 0-0.8 0.2-1.6 0.2-0.8 0.6-1.5 0.1-0.4 0.4-0.7 0.2-0.3 0.5-0.5 0.2-0.3 0.5-0.5 0.3-0.2 0.7-0.4 0.3-0.2 0.7-0.4 0.4-0.1 0.8-0.2 0.3-0.1 0.7-0.1 0.4-0.1 0.8-0.1 0.4 0 0.7 0.1 0.4 0 0.7 0.1 0.3 0.1 0.6 0.2 0.4 0.1 0.7 0.3 0.3 0.2 0.5 0.4 0.3 0.2 0.5 0.4 0.1 0.1 0.1 0.1v-6h2.7v16.3h-2.6v-1.5q0 0.1-0.1 0.2-0.3 0.3-0.5 0.5-0.3 0.2-0.6 0.4-0.3 0.1-0.6 0.2-0.3 0.2-0.7 0.2-0.3 0.1-0.7 0.1-0.3 0.1-0.7 0.1zm0.4-2.4q0 0 0 0 0 0 0 0zm0.4 0q0.2 0 0.4-0.1 0.3-0.1 0.5-0.1 0.2-0.1 0.4-0.2 0.2-0.1 0.4-0.3 0.2-0.1 0.3-0.3 0.2-0.1 0.3-0.3 0.1-0.2 0.3-0.4 0.1-0.2 0.2-0.5 0.1-0.2 0.1-0.5 0.1-0.2 0.1-0.5 0-0.2 0-0.5 0-0.2 0-0.5 0-0.2-0.1-0.5 0-0.2-0.1-0.5-0.1-0.2-0.2-0.5-0.2-0.2-0.3-0.3-0.1-0.2-0.3-0.4-0.1-0.2-0.3-0.3-0.2-0.1-0.4-0.2-0.2-0.2-0.4-0.2-0.2-0.1-0.5-0.2-0.2 0-0.4-0.1-0.2 0-0.5 0-0.2 0-0.4 0-0.3 0.1-0.5 0.1-0.2 0.1-0.4 0.2-0.2 0-0.4 0.2-0.2 0.1-0.4 0.2-0.2 0.2-0.4 0.3-0.1 0.2-0.3 0.4-0.1 0.1-0.2 0.3-0.1 0.3-0.2 0.5-0.1 0.3-0.2 0.5 0 0.3 0 0.5-0.1 0.3-0.1 0.5 0 0.3 0.1 0.5 0 0.3 0 0.5 0.1 0.3 0.2 0.5 0.1 0.3 0.2 0.5 0.1 0.2 0.2 0.4 0.2 0.2 0.3 0.3 0.2 0.2 0.4 0.3 0.2 0.2 0.4 0.3 0.2 0.1 0.4 0.2 0.2 0.1 0.4 0.1 0.3 0.1 0.5 0.1 0.2 0 0.5 0 0.2 0 0.4 0zm14.9 2.4q-0.5 0-0.9-0.1-0.5 0-0.9-0.1-0.4-0.1-0.9-0.3-0.4-0.1-0.8-0.3-0.3-0.2-0.6-0.4-0.4-0.3-0.7-0.5-0.2-0.3-0.5-0.6-0.2-0.3-0.4-0.7-0.4-0.7-0.6-1.5-0.2-0.8-0.2-1.6 0-0.8 0.2-1.6 0.2-0.8 0.6-1.5 0.2-0.3 0.4-0.6 0.2-0.3 0.5-0.6 0.3-0.3 0.6-0.5 0.3-0.2 0.6-0.4 0.4-0.2 0.8-0.3 0.3-0.2 0.7-0.3 0.4-0.1 0.8-0.1 0.5-0.1 0.9-0.1 0.4 0 0.8 0.1 0.4 0 0.7 0.1 0.4 0.1 0.8 0.2 0.4 0.2 0.7 0.4 0.4 0.2 0.7 0.4 0.3 0.2 0.5 0.5 0.3 0.3 0.5 0.6 0.2 0.3 0.4 0.6 0.2 0.4 0.4 0.7 0.1 0.4 0.2 0.8 0.1 0.5 0.2 0.9 0 0.4 0 0.8 0 0 0 0.1 0 0 0 0.1 0 0 0 0.1 0 0 0 0.1 0 0.1 0 0.1 0 0.1 0 0.1 0 0.1 0 0.1 0 0.1 0 0.1h-9.2q0 0.1 0 0.2 0.1 0.3 0.2 0.5 0.1 0.2 0.2 0.4 0.1 0.2 0.3 0.4 0.1 0.2 0.3 0.4 0.2 0.1 0.4 0.3 0.1 0.1 0.4 0.2 0.2 0.1 0.4 0.2 0.3 0.1 0.5 0.1 0.3 0.1 0.5 0.1 0.3 0 0.6 0 0.2 0 0.4 0 0.2 0 0.5 0 0.2-0.1 0.4-0.1 0.2-0.1 0.4-0.2 0.2-0.1 0.4-0.2 0.2-0.1 0.4-0.2 0.2-0.1 0.3-0.3 0.2-0.1 0.4-0.3l1.4 1.7q-0.2 0.2-0.4 0.5-0.2 0.2-0.5 0.3-0.2 0.2-0.5 0.4-0.3 0.1-0.6 0.2-0.3 0.2-0.6 0.3-0.4 0.1-0.7 0.1-0.4 0.1-0.7 0.1-0.4 0.1-0.7 0.1zm-3.7-5.2q0-0.1 0-0.2-0.1-0.3-0.1-0.5v-0.5q0-0.2 0.1-0.4 0-0.1 0-0.2h-0.6v1.8zm6.7-1.8q0 0 0 0.1 0 0.2 0 0.5l1.1-0.6zm-0.1-0.4q0-0.2-0.1-0.4-0.1-0.2-0.2-0.4-0.1-0.2-0.2-0.4-0.2-0.2-0.3-0.3-0.2-0.2-0.3-0.3-0.2-0.1-0.4-0.2-0.2-0.1-0.4-0.2-0.2-0.1-0.4-0.2-0.3 0-0.5 0-0.2-0.1-0.4-0.1-0.3 0-0.5 0.1-0.2 0-0.5 0-0.2 0.1-0.4 0.2-0.2 0.1-0.4 0.2-0.2 0.1-0.4 0.2-0.2 0.1-0.3 0.3-0.2 0.2-0.3 0.3-0.1 0.2-0.2 0.4-0.1 0.2-0.2 0.4-0.1 0.3-0.1 0.5-0.1 0.1-0.1 0.3h6.7q0-0.2-0.1-0.4zm8.2 7.2l-5-11.7h2.8l3.7 8.7 3.8-8.7h2.6l-5 11.7zm1.5-3l-0.7 1.6h1.4zm13.3 3.2q-0.5 0-0.9 0-0.4-0.1-0.9-0.2-0.4-0.1-0.8-0.2-0.4-0.2-0.8-0.4-0.4-0.1-0.7-0.4-0.3-0.2-0.6-0.5-0.3-0.2-0.6-0.6-0.2-0.3-0.4-0.6-0.2-0.4-0.4-0.7-0.1-0.4-0.2-0.8-0.1-0.4-0.2-0.8 0-0.4 0-0.8 0-0.4 0-0.8 0.1-0.4 0.2-0.8 0.1-0.4 0.2-0.8 0.2-0.4 0.4-0.7 0.2-0.3 0.4-0.7 0.2-0.3 0.5-0.5 0.3-0.3 0.6-0.5 0.3-0.3 0.6-0.4 0.4-0.2 0.8-0.4 0.3-0.1 0.7-0.2 0.4-0.1 0.8-0.2 0.5 0 0.9 0 0.4 0 0.8 0 0.4 0.1 0.7 0.2 0.4 0.1 0.8 0.2 0.4 0.1 0.7 0.3 0.4 0.2 0.7 0.4 0.3 0.3 0.5 0.5 0.3 0.3 0.5 0.6 0.3 0.3 0.4 0.6 0.2 0.4 0.4 0.8 0.1 0.4 0.2 0.8 0.1 0.4 0.2 0.8 0 0.4 0 0.9 0 0.1 0 0.4 0 0.2 0 0.4h-9.2q0 0.1 0 0.2 0.1 0.2 0.2 0.5 0.1 0.2 0.2 0.4 0.1 0.2 0.3 0.4 0.1 0.2 0.3 0.3 0.2 0.2 0.4 0.3 0.2 0.1 0.4 0.2 0.2 0.2 0.4 0.2 0.3 0.1 0.5 0.2 0.3 0 0.5 0.1 0.3 0 0.6 0 0.2 0 0.4 0 0.2 0 0.5-0.1 0.2 0 0.4-0.1 0.2 0 0.5-0.1 0.2-0.1 0.3-0.2 0.2-0.1 0.4-0.2 0.2-0.2 0.4-0.3 0.1-0.2 0.3-0.3l1.4 1.7q-0.2 0.2-0.4 0.4-0.2 0.2-0.5 0.4-0.2 0.2-0.5 0.3-0.3 0.2-0.6 0.3-0.3 0.1-0.6 0.2-0.4 0.1-0.7 0.2-0.3 0.1-0.7 0.1-0.3 0-0.7 0zm-3.7-5.1q0-0.2 0-0.3-0.1-0.2-0.1-0.5v-0.4q0-0.3 0.1-0.5 0-0.1 0-0.2h-0.6v1.9zm6.7-1.9q0 0.1 0 0.2 0 0.2 0 0.4l1.1-0.6zm-0.1-0.3q0-0.2-0.1-0.4-0.1-0.3-0.2-0.5-0.1-0.2-0.2-0.3-0.2-0.2-0.3-0.4-0.2-0.1-0.3-0.2-0.2-0.2-0.4-0.3-0.2-0.1-0.4-0.2-0.2-0.1-0.4-0.1-0.3-0.1-0.5-0.1-0.2 0-0.4 0-0.3 0-0.5 0-0.2 0-0.5 0.1-0.2 0-0.4 0.1-0.2 0.1-0.4 0.2-0.2 0.1-0.4 0.3-0.2 0.1-0.3 0.3-0.2 0.1-0.3 0.3-0.1 0.2-0.2 0.4-0.1 0.2-0.2 0.4-0.1 0.2-0.1 0.4-0.1 0.2-0.1 0.3h6.7q0-0.1-0.1-0.3zm5.3 7.2v-16.4h2.7v16.4zm11.7 0.1q-0.4 0-0.8 0-0.5-0.1-0.9-0.2-0.4-0.1-0.8-0.2-0.4-0.2-0.7-0.4-0.4-0.1-0.7-0.4-0.3-0.2-0.6-0.5-0.3-0.3-0.5-0.6-0.2-0.3-0.4-0.6-0.3-0.4-0.4-0.7-0.2-0.4-0.3-0.8-0.1-0.4-0.1-0.8-0.1-0.4-0.1-0.8 0-0.4 0.1-0.8 0-0.4 0.1-0.8 0.1-0.4 0.3-0.8 0.1-0.4 0.4-0.7 0.2-0.4 0.4-0.7 0.2-0.3 0.5-0.5 0.3-0.3 0.6-0.5 0.3-0.3 0.7-0.4 0.7-0.4 1.5-0.6 0.9-0.2 1.7-0.2 0.8 0 1.7 0.2 0.8 0.2 1.5 0.6 0.4 0.1 0.7 0.4 0.3 0.2 0.6 0.5 0.3 0.2 0.5 0.5 0.2 0.3 0.4 0.7 0.4 0.7 0.7 1.5 0.2 0.8 0.2 1.6 0 0.8-0.2 1.6-0.3 0.8-0.7 1.5-0.2 0.3-0.4 0.6-0.2 0.4-0.5 0.6-0.3 0.3-0.6 0.5-0.3 0.3-0.7 0.4-0.3 0.2-0.7 0.4-0.4 0.1-0.8 0.2-0.4 0.1-0.9 0.2-0.4 0-0.8 0zm0-2.3q0 0 0 0 0 0 0 0zm0.5-0.1q0.2 0 0.4 0 0.2-0.1 0.5-0.2 0.2-0.1 0.4-0.2 0.2-0.1 0.4-0.2 0.2-0.2 0.3-0.3 0.2-0.2 0.3-0.4 0.1-0.2 0.2-0.4 0.1-0.2 0.2-0.4 0.1-0.3 0.2-0.5 0-0.2 0.1-0.5 0-0.3 0-0.5 0-0.3 0-0.5-0.1-0.3-0.1-0.5-0.1-0.3-0.2-0.5-0.1-0.3-0.2-0.5-0.1-0.2-0.2-0.4-0.1-0.2-0.3-0.3-0.2-0.2-0.3-0.3-0.2-0.2-0.4-0.3-0.4-0.2-0.9-0.3-0.4-0.1-0.9-0.1-0.5 0-0.9 0.1-0.5 0.1-0.9 0.3-0.2 0.1-0.4 0.3-0.1 0.1-0.3 0.3-0.2 0.1-0.3 0.3-0.1 0.2-0.2 0.4-0.1 0.2-0.2 0.5-0.1 0.2-0.2 0.5 0 0.2-0.1 0.5 0 0.2 0 0.5 0 0.2 0 0.5 0.1 0.3 0.1 0.5 0.1 0.2 0.2 0.5 0.1 0.2 0.2 0.4 0.1 0.2 0.2 0.4 0.1 0.2 0.3 0.4 0.2 0.1 0.3 0.3 0.2 0.1 0.4 0.2 0.2 0.1 0.4 0.2 0.2 0.1 0.5 0.2 0.2 0 0.4 0 0.3 0.1 0.5 0.1 0.2 0 0.5-0.1zm14.9 2.4q-0.3 0-0.7 0-0.3-0.1-0.7-0.1-0.3-0.1-0.6-0.3-0.3-0.1-0.6-0.2-0.3-0.2-0.6-0.4-0.3-0.3-0.5-0.5 0 0-0.1-0.1v5.8l-2.7-0.1v-16h2.6v1.5q0.1-0.1 0.2-0.2 0.2-0.2 0.5-0.4 0.2-0.2 0.5-0.4 0.3-0.2 0.7-0.3 0.3-0.1 0.6-0.2 0.4-0.1 0.7-0.1 0.3-0.1 0.7-0.1 0.4 0 0.8 0.1 0.4 0 0.8 0.1 0.4 0.1 0.7 0.2 0.4 0.2 0.8 0.4 0.3 0.2 0.6 0.4 0.3 0.2 0.6 0.5 0.2 0.2 0.5 0.5 0.2 0.3 0.4 0.7 0.2 0.3 0.3 0.7 0.2 0.4 0.3 0.8 0.1 0.4 0.1 0.8 0.1 0.4 0.1 0.8 0 0.5-0.1 0.9 0 0.4-0.1 0.8-0.1 0.4-0.3 0.8-0.1 0.4-0.3 0.7-0.2 0.4-0.4 0.7-0.3 0.3-0.5 0.5-0.3 0.3-0.6 0.5-0.3 0.2-0.6 0.4-0.4 0.2-0.8 0.4-0.3 0.1-0.7 0.2-0.4 0.1-0.8 0.2-0.4 0-0.8 0zm-0.3-2.3q0 0 0 0 0 0 0 0zm0.5-0.1q0.2 0 0.4 0 0.2-0.1 0.4-0.2 0.3-0.1 0.5-0.2 0.2-0.1 0.3-0.2 0.2-0.2 0.4-0.3 0.1-0.2 0.3-0.4 0.1-0.2 0.2-0.4 0.1-0.2 0.2-0.4 0.1-0.3 0.2-0.5 0-0.2 0-0.5 0.1-0.3 0.1-0.5 0-0.3 0-0.5-0.1-0.3-0.1-0.5-0.1-0.3-0.2-0.5-0.1-0.3-0.2-0.5-0.1-0.2-0.2-0.4-0.2-0.2-0.3-0.3-0.2-0.2-0.4-0.3-0.1-0.2-0.3-0.3-0.2-0.1-0.5-0.2-0.2-0.1-0.4-0.1-0.2-0.1-0.4-0.1-0.3 0-0.5 0-0.2 0-0.5 0-0.2 0-0.4 0.1-0.3 0-0.5 0.1-0.2 0.1-0.4 0.2-0.2 0.1-0.4 0.3-0.1 0.1-0.3 0.3-0.2 0.1-0.3 0.3-0.1 0.2-0.2 0.4-0.2 0.2-0.3 0.5-0.1 0.2-0.1 0.5-0.1 0.2-0.1 0.5 0 0.2 0 0.5 0 0.2 0 0.5 0 0.3 0.1 0.5 0.1 0.2 0.1 0.5 0.1 0.2 0.3 0.4 0.1 0.2 0.2 0.4 0.1 0.2 0.3 0.4 0.1 0.1 0.3 0.3 0.2 0.1 0.4 0.2 0.2 0.1 0.4 0.2 0.3 0.1 0.5 0.2 0.2 0 0.4 0 0.3 0.1 0.5 0.1 0.2 0 0.5-0.1zm23.2-9.6q0.3 0 0.6 0 0.4 0 0.7 0.1 0.3 0.1 0.6 0.2 0.3 0.1 0.6 0.2 0.3 0.2 0.5 0.4 0.3 0.1 0.5 0.3 0.2 0.3 0.4 0.5 0.2 0.3 0.3 0.5 0.2 0.4 0.3 0.7 0.1 0.4 0.2 0.7 0.1 0.4 0.1 0.8 0 0.4 0 0.7v6.8h-2.7v-6.4q0-0.3 0-0.6-0.1-0.3-0.2-0.6 0-0.3-0.2-0.6-0.1-0.3-0.3-0.5-0.2-0.2-0.4-0.4-0.3-0.2-0.5-0.3-0.3-0.1-0.6-0.1-0.2 0-0.5 0-0.2 0-0.4 0-0.2 0-0.4 0.1-0.2 0-0.4 0.1-0.2 0.1-0.4 0.2-0.2 0.1-0.4 0.2-0.1 0.1-0.2 0.3-0.2 0.1-0.3 0.3-0.1 0.2-0.2 0.3-0.1 0.3-0.2 0.5-0.1 0.3-0.1 0.5 0 0.3-0.1 0.5 0 0.3 0 0.5v6h-2.7v-6.3q0-0.3 0-0.7-0.1-0.3-0.2-0.6 0-0.3-0.2-0.5-0.1-0.3-0.3-0.6-0.2-0.2-0.4-0.3-0.3-0.2-0.5-0.3-0.3-0.1-0.6-0.1-0.2-0.1-0.5 0-0.2 0-0.4 0-0.2 0-0.4 0.1-0.2 0-0.4 0.1-0.2 0.1-0.4 0.2-0.2 0.1-0.3 0.2-0.2 0.1-0.3 0.3-0.2 0.1-0.3 0.3-0.1 0.1-0.2 0.3-0.1 0.3-0.2 0.5 0 0.3-0.1 0.5 0 0.3-0.1 0.5 0 0.3 0 0.5v6h-2.7v-11.7h2.6v1.5q0.1-0.2 0.3-0.3 0.2-0.2 0.4-0.4 0.3-0.2 0.6-0.4 0.3-0.1 0.6-0.2 0.3-0.1 0.6-0.2 0.4-0.1 0.7-0.1 0.3-0.1 0.7-0.1 0.3 0 0.7 0.1 0.4 0 0.7 0.1 0.4 0.1 0.8 0.3 0.3 0.1 0.6 0.4 0.3 0.2 0.6 0.4 0.3 0.3 0.5 0.6 0 0.1 0 0.1 0.1-0.1 0.2-0.3 0.3-0.2 0.6-0.5 0.2-0.2 0.6-0.4 0.3-0.2 0.7-0.4 0.4-0.1 0.8-0.3 0.4-0.1 0.8-0.2 0.4 0 0.8 0zm-12.3 1.8q0 0.1-0.1 0.1-0.2 0.3-0.3 0.6l0.4 0.9zm7.8 0.3q-0.1 0.2-0.2 0.3-0.2 0.4-0.3 0.7l1.1 0.4q-0.1-0.4-0.3-0.8-0.1-0.3-0.3-0.6zm18.4 9.9q-0.4 0-0.9 0-0.4-0.1-0.9-0.2-0.4 0-0.8-0.2-0.4-0.1-0.8-0.3-0.4-0.2-0.7-0.5-0.3-0.2-0.6-0.5-0.3-0.2-0.6-0.5-0.2-0.4-0.4-0.7-0.4-0.7-0.6-1.5-0.2-0.8-0.2-1.6 0-0.8 0.2-1.6 0.2-0.8 0.6-1.5 0.2-0.3 0.4-0.6 0.3-0.4 0.5-0.6 0.3-0.3 0.6-0.5 0.3-0.3 0.6-0.4 0.4-0.2 0.8-0.4 0.4-0.1 0.8-0.2 0.4-0.1 0.8-0.2 0.4 0 0.8 0 0.4 0 0.8 0 0.4 0.1 0.8 0.2 0.4 0.1 0.7 0.2 0.4 0.2 0.8 0.3 0.3 0.2 0.6 0.5 0.3 0.2 0.6 0.4 0.2 0.3 0.5 0.6 0.2 0.3 0.4 0.7 0.2 0.3 0.3 0.7 0.2 0.4 0.3 0.8 0.1 0.4 0.1 0.8 0 0.4 0 0.9 0 0.1 0 0.4 0 0 0 0.1 0 0 0 0.1 0 0 0 0.1 0 0 0 0.1h-9.3q0.1 0.1 0.1 0.2 0 0.2 0.1 0.5 0.1 0.2 0.3 0.4 0.1 0.2 0.2 0.4 0.2 0.2 0.3 0.3 0.2 0.2 0.4 0.3 0.2 0.1 0.4 0.3 0.2 0.1 0.5 0.1 0.2 0.1 0.5 0.2 0.2 0 0.5 0.1 0.3 0 0.5 0 0.2 0 0.5 0 0.2 0 0.4-0.1 0.2 0 0.5-0.1 0.2 0 0.4-0.1 0.2-0.1 0.4-0.2 0.2-0.1 0.4-0.2 0.1-0.2 0.3-0.3 0.2-0.2 0.3-0.3l1.5 1.7q-0.2 0.2-0.4 0.4-0.3 0.2-0.5 0.4-0.3 0.2-0.6 0.3-0.2 0.2-0.5 0.3-0.3 0.1-0.7 0.2-0.3 0.1-0.6 0.2-0.4 0.1-0.7 0.1-0.4 0-0.7 0.1zm-3.8-5.2q0-0.1 0-0.3 0-0.2 0-0.4v-0.5q0-0.2 0-0.5 0 0 0-0.1h-0.4v1.8zm6.6-1.8q0 0 0 0.1 0.1 0.2 0.1 0.5l1-0.6zm0-0.4q-0.1-0.2-0.2-0.4-0.1-0.2-0.2-0.4-0.1-0.2-0.2-0.4-0.1-0.2-0.3-0.3-0.1-0.2-0.3-0.3-0.2-0.1-0.4-0.2-0.2-0.2-0.4-0.2-0.2-0.1-0.4-0.2-0.2 0-0.5-0.1-0.2 0-0.4 0-0.3 0-0.5 0-0.2 0.1-0.4 0.1-0.3 0.1-0.5 0.2-0.2 0-0.4 0.2-0.2 0.1-0.4 0.2-0.1 0.1-0.3 0.3-0.1 0.1-0.3 0.3-0.1 0.2-0.2 0.4-0.1 0.2-0.2 0.4-0.1 0.2-0.1 0.5-0.1 0.1-0.1 0.3h6.7q0-0.2 0-0.4zm12-4.6q0 0 0 0 0 0-0.1 0zm0.7 0q0.3 0 0.6 0.1 0.3 0 0.6 0.2 0.3 0.1 0.6 0.2 0.3 0.1 0.6 0.3 0.2 0.2 0.4 0.4 0.3 0.2 0.5 0.5 0.1 0.2 0.3 0.5 0.2 0.3 0.3 0.7 0.1 0.3 0.2 0.7 0.1 0.4 0.1 0.7 0 0.4 0 0.8v6.7h-2.7v-6.3q0-0.4 0-0.7-0.1-0.3-0.1-0.6-0.1-0.3-0.3-0.6-0.1-0.2-0.3-0.5-0.2-0.2-0.5-0.3-0.2-0.2-0.5-0.3-0.2-0.1-0.5-0.1-0.3-0.1-0.5 0-0.3-0.1-0.5 0-0.2 0-0.4 0-0.2 0.1-0.5 0.2-0.2 0-0.4 0.1-0.1 0.1-0.3 0.3-0.2 0.1-0.3 0.2-0.2 0.2-0.3 0.4-0.1 0.1-0.2 0.3-0.1 0.3-0.2 0.5-0.1 0.3-0.1 0.5-0.1 0.3-0.1 0.5 0 0.3 0 0.5v6h-2.8v-11.8h2.6v1.5q0.2-0.2 0.3-0.3 0.3-0.2 0.5-0.4 0.3-0.2 0.6-0.3 0.3-0.2 0.6-0.3 0.3-0.1 0.7-0.2 0.3-0.1 0.7-0.1 0.3-0.1 0.6 0 0.4-0.1 0.7 0zm-4.7 1.6q0 0.1-0.1 0.2-0.2 0.2-0.3 0.5l0.4 1zm16.8 10.3q-0.4 0.1-0.8 0-0.4 0-0.8-0.2-0.3-0.1-0.7-0.3-0.4-0.2-0.7-0.5-0.2-0.3-0.4-0.6-0.2-0.4-0.4-0.8-0.1-0.4-0.2-0.8 0-0.4 0-0.8v-5.6h-2v-2.2h2v-2.7h2.8v2.7h3.1v2.2h-3.1v5.6q0 0.1 0 0.3 0 0.2 0.1 0.4 0 0.1 0.1 0.3 0.1 0.1 0.2 0.3 0.1 0.1 0.3 0.2 0.1 0.1 0.3 0.1 0.1 0.1 0.3 0.1 0.1 0 0.3 0 0.2 0 0.4 0 0.2 0 0.4-0.1 0.2 0 0.4-0.1 0.2-0.1 0.3-0.3l0.8 2q-0.1 0.1-0.3 0.2-0.1 0.1-0.2 0.2-0.2 0.1-0.3 0.1-0.2 0.1-0.4 0.1-0.1 0.1-0.3 0.1-0.2 0.1-0.4 0.1-0.2 0-0.4 0-0.2 0.1-0.3 0.1zm5-5.3l-0.5-10.3h3.2l-0.5 10.3zm1.1 5.3q-0.2 0-0.4-0.1-0.1 0-0.3-0.1-0.2 0-0.3-0.1-0.1-0.1-0.3-0.2-0.1-0.2-0.2-0.3-0.1-0.1-0.2-0.3 0-0.1-0.1-0.3 0-0.2 0-0.3 0-0.2 0-0.4 0.1-0.1 0.1-0.3 0.1-0.2 0.2-0.3 0.1-0.1 0.2-0.2 0.2-0.2 0.3-0.3 0.1-0.1 0.3-0.1 0.2-0.1 0.3-0.1 0.2-0.1 0.4 0 0.2-0.1 0.3 0 0.2 0 0.4 0.1 0.1 0 0.3 0.1 0.1 0.1 0.3 0.3 0.1 0.1 0.2 0.2 0.1 0.2 0.1 0.3 0.1 0.2 0.1 0.3 0 0.2 0 0.4 0 0.1 0 0.3 0 0.1-0.1 0.3 0 0.2-0.1 0.3-0.1 0.1-0.2 0.3-0.2 0.1-0.3 0.2-0.1 0.1-0.3 0.2-0.2 0-0.3 0.1-0.2 0-0.4 0z"/><path class="g" d="m970.5 1427c-21.3 0-38.5-17.2-38.5-38.5 0-21.3 17.2-38.5 38.5-38.5 21.3 0 38.5 17.2 38.5 38.5 0 21.3-17.2 38.5-38.5 38.5z"/><path class="h" d="m950.5 1393c-2.5 0-4.5-2-4.5-4.5 0-2.5 2-4.5 4.5-4.5 2.5 0 4.5 2 4.5 4.5 0 2.5-2 4.5-4.5 4.5z"/><path class="h" d="m969.5 1393c-2.5 0-4.5-2-4.5-4.5 0-2.5 2-4.5 4.5-4.5 2.5 0 4.5 2 4.5 4.5 0 2.5-2 4.5-4.5 4.5z"/><path class="h" d="m988.5 1393c-2.5 0-4.5-2-4.5-4.5 0-2.5 2-4.5 4.5-4.5 2.5 0 4.5 2 4.5 4.5 0 2.5-2 4.5-4.5 4.5z"/></svg>