<svg version="1.2" xmlns="http://www.w3.org/2000/svg" viewBox="0 0 600 348" width="64" height="37"><style>.a{fill:#85970c}.b{fill:#fff}</style><path class="a" d="m135.2 330c4 0 5.7-1.8 5.7-5.7v-19c0-3.9-1.7-5.7-5.7-5.7h-32c-6.7 0-9.7-2.4-9.7-7.6v-37.9c0-5.4 3-7.9 9.7-7.9h32c4 0 5.7-1.8 5.7-5.8v-19.2c0-4-1.7-5.8-5.7-5.8h-38.8c-26.8 0-39.2 10.4-39.2 32.7v49.4c0 22.2 12.4 32.5 39.2 32.5zm59.6-85.9h12c5.5 0 7 3.2 7 7.5v5.4c0 4.3-1.5 7.5-7 7.5h-12zm-5.7 85.9c4 0 5.7-1.8 5.7-5.8v-31.1h22.3c4.5 0 6 2 6 6.8v24.3c0 4 1.8 5.8 5.8 5.8h24.6c4 0 5.8-1.8 5.8-5.8v-33.7c0-13.4-7.7-21.8-19.3-23.1 6.7-2.8 8.9-9.2 8.9-18.1v-7.3c0-15.8-7.5-26.6-31.3-26.6h-53c-4 0-5.7 1.8-5.7 5.7v103.1c0 4 1.7 5.8 5.7 5.8zm184.2-30.1v-54.3c0-19.4-9.5-32.6-49.3-32.6-39.8 0-49.5 13.2-49.5 32.6v54.3c0 19.4 9.7 32.5 49.5 32.5 39.8 0 49.3-13.1 49.3-32.5zm-62.6-5.7v-42.8c0-4.2 1.9-7.3 13.3-7.3 11.6 0 13.4 3.1 13.4 7.3v42.8c0 4.3-1.8 7.4-13.4 7.4-11.4 0-13.3-3.1-13.3-7.4zm159.1 35.8c3.9 0 5.7-1.8 5.7-5.8v-18.9c0-4-1.8-5.7-5.7-5.7h-32c-6.7 0-9.7-2.4-9.7-7.7v-37.8c0-5.4 3-8 9.7-8h32c3.9 0 5.7-1.7 5.7-5.7v-19.3c0-3.9-1.8-5.7-5.7-5.7h-38.9c-26.7 0-39.1 10.4-39.1 32.6v49.5c0 22.1 12.4 32.5 39.1 32.5zm76.9 0c20.5 0 32.9-9.9 32.9-28v-16.7c0-17.9-9.9-24.2-24.8-26.5l-23.7-3.1c-2.7-0.4-4.3-2.3-4.3-5.1 0-2.9 1.6-4.8 4.3-4.8h37.1c3.9 0 5.7-1.7 5.7-5.7v-19c0-3.9-1.8-5.7-5.7-5.7h-44.6c-20.7 0-32.9 9.9-32.9 28v16.7c0 17.8 9.7 24.2 24.6 26.4l23.9 3.4c2.7 0.3 4.1 1.7 4.1 5.4 0 2.5-1.4 4.6-4.1 4.6h-42.8c-4 0-5.7 1.7-5.7 5.7v18.6c0 4 1.7 5.8 5.7 5.8z"/><path class="b" d="m93.5 180c23.8 0 34.8-9.3 34.8-29.4v-16.4c0-17.6-7.2-26.3-22.6-27.8 7.2-3 10.6-9.3 10.6-19.3v-8.6c0-18.8-11-27.4-34.4-27.4h-57.1c-4.5 0-6.4 2-6.4 6.5v116c0 4.4 1.9 6.4 6.4 6.4zm-34.9-98.5h15.2c4.7 0 6.8 2.4 6.8 7.2v5c0 4.9-2.1 7.2-6.8 7.2h-15.2zm0 46.9h23.3c4.6 0 6.8 2.1 6.8 7v6.9c0 4.9-2.2 7.2-6.8 7.2h-23.3zm136.2-39.7c0.9-2.2 2-3.1 3.4-3.1h4.5c1.4 0 2.5 0.9 3.4 3.1l8.4 27.2h-28.1zm-10.2 84.8v-25h31.7v25c0 4.5 2.1 6.5 7 6.5h27c4.5 0 6.4-2 6.4-6.5v-47.2c0-7.2-2.1-16.1-7-28.7l-15.5-40.6c-1.5-4.1-4.3-5.9-9-5.9h-48.1c-4.9 0-7.7 1.8-9.2 5.9l-15.5 40.6c-4.9 12.6-7 21.5-7 28.7v47.2c0 4.5 2 6.5 6.4 6.5h26.3c4.5 0 6.5-2 6.5-6.5zm153.9 6.5c23.1 0 37.1-11.1 37.1-31.5v-18.8c0-20.1-11.1-27.2-27.9-29.8l-26.7-3.5c-3.1-0.4-4.8-2.5-4.8-5.8 0-3.2 1.7-5.3 4.8-5.3h41.7c4.5 0 6.4-2 6.4-6.5v-21.3c0-4.4-1.9-6.4-6.4-6.4h-50.1c-23.3 0-37.1 11.1-37.1 31.5v18.8c0 20 10.9 27.2 27.8 29.7l26.8 3.8c3.1 0.3 4.7 1.9 4.7 6 0 2.9-1.6 5.2-4.7 5.2h-48.1c-4.5 0-6.5 2-6.5 6.5v20.9c0 4.5 2 6.5 6.5 6.5zm146 0c4.5 0 6.5-2 6.5-6.5v-20.9c0-4.5-2-6.5-6.5-6.5h-49.4v-15.4h34.9c4.5 0 6.5-1.9 6.5-6.4v-19.2c0-4.4-2-6.4-6.5-6.4h-34.9v-13.8h49.4c4.5 0 6.5-2 6.5-6.4v-21c0-4.4-2-6.4-6.5-6.4h-83c-4.5 0-6.5 2-6.5 6.4v116c0 4.5 2 6.5 6.5 6.5z"/></svg>